<svg xmlns="http://www.w3.org/2000/svg" xmlns:xlink="http://www.w3.org/1999/xlink" width="1200" zoomAndPan="magnify" viewBox="0 0 900 225" height="300" preserveAspectRatio="xMidYMid meet" version="1.0"><defs><clipPath id="027b27edb3"><path d="M 0 48.597656 L 581.601562 48.597656 L 581.601562 176.402344 L 0 176.402344 Z M 0 48.597656 " clip-rule="nonzero"/></clipPath><clipPath id="b8b3019d5a"><path d="M 564.425781 48.597656 L -21.976562 48.597656 L -5.101562 176.402344 L 581.300781 176.402344 Z M 564.425781 48.597656 " clip-rule="nonzero"/></clipPath><clipPath id="a8a1da89c0"><path d="M 704.039062 48.597656 L 793.777344 48.597656 L 793.777344 176.542969 L 704.039062 176.542969 Z M 704.039062 48.597656 " clip-rule="nonzero"/></clipPath><clipPath id="620b82ee5d"><path d="M 776.902344 48.597656 L 704.039062 48.597656 L 720.914062 176.402344 L 793.777344 176.402344 Z M 776.902344 48.597656 " clip-rule="nonzero"/></clipPath><clipPath id="8c20383ab9"><path d="M 810.261719 48.597656 L 900 48.597656 L 900 176.542969 L 810.261719 176.542969 Z M 810.261719 48.597656 " clip-rule="nonzero"/></clipPath><clipPath id="742d131277"><path d="M 883.125 48.597656 L 810.261719 48.597656 L 827.136719 176.402344 L 900 176.402344 Z M 883.125 48.597656 " clip-rule="nonzero"/></clipPath><clipPath id="736598a7e3"><path d="M 597.800781 48.597656 L 687.539062 48.597656 L 687.539062 176.542969 L 597.800781 176.542969 Z M 597.800781 48.597656 " clip-rule="nonzero"/></clipPath><clipPath id="bd2dfc8e15"><path d="M 670.664062 48.597656 L 597.800781 48.597656 L 614.675781 176.402344 L 687.539062 176.402344 Z M 670.664062 48.597656 " clip-rule="nonzero"/></clipPath></defs><g clip-path="url(#027b27edb3)"><g clip-path="url(#b8b3019d5a)"><path fill="#eaeaea" d="M -21.976562 48.597656 L 581.105469 48.597656 L 581.105469 176.402344 L -21.976562 176.402344 Z M -21.976562 48.597656 " fill-opacity="1" fill-rule="nonzero"/></g></g><g clip-path="url(#a8a1da89c0)"><g clip-path="url(#620b82ee5d)"><path fill="#eaeaea" d="M 704.039062 48.597656 L 793.777344 48.597656 L 793.777344 176.542969 L 704.039062 176.542969 Z M 704.039062 48.597656 " fill-opacity="1" fill-rule="nonzero"/></g></g><g clip-path="url(#8c20383ab9)"><g clip-path="url(#742d131277)"><path fill="#eaeaea" d="M 810.261719 48.597656 L 900 48.597656 L 900 176.542969 L 810.261719 176.542969 Z M 810.261719 48.597656 " fill-opacity="1" fill-rule="nonzero"/></g></g><g clip-path="url(#736598a7e3)"><g clip-path="url(#bd2dfc8e15)"><path fill="#eaeaea" d="M 597.800781 48.597656 L 687.539062 48.597656 L 687.539062 176.542969 L 597.800781 176.542969 Z M 597.800781 48.597656 " fill-opacity="1" fill-rule="nonzero"/></g></g></svg>