<svg xmlns="http://www.w3.org/2000/svg" xmlns:xlink="http://www.w3.org/1999/xlink" width="1200" zoomAndPan="magnify" viewBox="0 0 900 225" height="300" preserveAspectRatio="xMidYMid meet" version="1.0"><defs><clipPath id="d16ad0fc25"><path d="M 0 48.597656 L 581.601562 48.597656 L 581.601562 176.402344 L 0 176.402344 Z M 0 48.597656 " clip-rule="nonzero"/></clipPath><clipPath id="184640fda2"><path d="M 564.425781 48.597656 L -21.976562 48.597656 L -5.101562 176.402344 L 581.300781 176.402344 Z M 564.425781 48.597656 " clip-rule="nonzero"/></clipPath><clipPath id="6497a08ff6"><path d="M 704.039062 48.597656 L 793.777344 48.597656 L 793.777344 176.542969 L 704.039062 176.542969 Z M 704.039062 48.597656 " clip-rule="nonzero"/></clipPath><clipPath id="565d49cdc6"><path d="M 776.902344 48.597656 L 704.039062 48.597656 L 720.914062 176.402344 L 793.777344 176.402344 Z M 776.902344 48.597656 " clip-rule="nonzero"/></clipPath><clipPath id="c4cc62385c"><path d="M 810.261719 48.597656 L 900 48.597656 L 900 176.542969 L 810.261719 176.542969 Z M 810.261719 48.597656 " clip-rule="nonzero"/></clipPath><clipPath id="1d3f04ba3b"><path d="M 883.125 48.597656 L 810.261719 48.597656 L 827.136719 176.402344 L 900 176.402344 Z M 883.125 48.597656 " clip-rule="nonzero"/></clipPath><clipPath id="a1223d0b62"><path d="M 597.800781 48.597656 L 687.539062 48.597656 L 687.539062 176.542969 L 597.800781 176.542969 Z M 597.800781 48.597656 " clip-rule="nonzero"/></clipPath><clipPath id="44adcb2ebd"><path d="M 670.664062 48.597656 L 597.800781 48.597656 L 614.675781 176.402344 L 687.539062 176.402344 Z M 670.664062 48.597656 " clip-rule="nonzero"/></clipPath></defs><g clip-path="url(#d16ad0fc25)"><g clip-path="url(#184640fda2)"><path fill="#212121" d="M -21.976562 48.597656 L 581.105469 48.597656 L 581.105469 176.402344 L -21.976562 176.402344 Z M -21.976562 48.597656 " fill-opacity="1" fill-rule="nonzero"/></g></g><g clip-path="url(#6497a08ff6)"><g clip-path="url(#565d49cdc6)"><path fill="#212121" d="M 704.039062 48.597656 L 793.777344 48.597656 L 793.777344 176.542969 L 704.039062 176.542969 Z M 704.039062 48.597656 " fill-opacity="1" fill-rule="nonzero"/></g></g><g clip-path="url(#c4cc62385c)"><g clip-path="url(#1d3f04ba3b)"><path fill="#212121" d="M 810.261719 48.597656 L 900 48.597656 L 900 176.542969 L 810.261719 176.542969 Z M 810.261719 48.597656 " fill-opacity="1" fill-rule="nonzero"/></g></g><g clip-path="url(#a1223d0b62)"><g clip-path="url(#44adcb2ebd)"><path fill="#212121" d="M 597.800781 48.597656 L 687.539062 48.597656 L 687.539062 176.542969 L 597.800781 176.542969 Z M 597.800781 48.597656 " fill-opacity="1" fill-rule="nonzero"/></g></g></svg>