<svg xmlns="http://www.w3.org/2000/svg" xmlns:xlink="http://www.w3.org/1999/xlink" width="1200" zoomAndPan="magnify" viewBox="0 0 900 225" height="300" preserveAspectRatio="xMidYMid meet" version="1.0"><defs><clipPath id="17af9fb7c8"><path d="M 0 48.597656 L 581.601562 48.597656 L 581.601562 176.402344 L 0 176.402344 Z M 0 48.597656 " clip-rule="nonzero"/></clipPath><clipPath id="74110c3765"><path d="M 564.425781 48.597656 L -21.976562 48.597656 L -5.101562 176.402344 L 581.300781 176.402344 Z M 564.425781 48.597656 " clip-rule="nonzero"/></clipPath><clipPath id="8e60b402da"><path d="M 704.039062 48.597656 L 793.777344 48.597656 L 793.777344 176.542969 L 704.039062 176.542969 Z M 704.039062 48.597656 " clip-rule="nonzero"/></clipPath><clipPath id="a200386015"><path d="M 776.902344 48.597656 L 704.039062 48.597656 L 720.914062 176.402344 L 793.777344 176.402344 Z M 776.902344 48.597656 " clip-rule="nonzero"/></clipPath><clipPath id="57e8de68b4"><path d="M 810.261719 48.597656 L 900 48.597656 L 900 176.542969 L 810.261719 176.542969 Z M 810.261719 48.597656 " clip-rule="nonzero"/></clipPath><clipPath id="4e0f0935f7"><path d="M 883.125 48.597656 L 810.261719 48.597656 L 827.136719 176.402344 L 900 176.402344 Z M 883.125 48.597656 " clip-rule="nonzero"/></clipPath><clipPath id="78bf69b4c4"><path d="M 597.800781 48.597656 L 687.539062 48.597656 L 687.539062 176.542969 L 597.800781 176.542969 Z M 597.800781 48.597656 " clip-rule="nonzero"/></clipPath><clipPath id="3d98f8cab7"><path d="M 670.664062 48.597656 L 597.800781 48.597656 L 614.675781 176.402344 L 687.539062 176.402344 Z M 670.664062 48.597656 " clip-rule="nonzero"/></clipPath></defs><g clip-path="url(#17af9fb7c8)"><g clip-path="url(#74110c3765)"><path fill="#ffffff" d="M -21.976562 48.597656 L 581.105469 48.597656 L 581.105469 176.402344 L -21.976562 176.402344 Z M -21.976562 48.597656 " fill-opacity="1" fill-rule="nonzero"/></g></g><g clip-path="url(#8e60b402da)"><g clip-path="url(#a200386015)"><path fill="#ffffff" d="M 704.039062 48.597656 L 793.777344 48.597656 L 793.777344 176.542969 L 704.039062 176.542969 Z M 704.039062 48.597656 " fill-opacity="1" fill-rule="nonzero"/></g></g><g clip-path="url(#57e8de68b4)"><g clip-path="url(#4e0f0935f7)"><path fill="#ffffff" d="M 810.261719 48.597656 L 900 48.597656 L 900 176.542969 L 810.261719 176.542969 Z M 810.261719 48.597656 " fill-opacity="1" fill-rule="nonzero"/></g></g><g clip-path="url(#78bf69b4c4)"><g clip-path="url(#3d98f8cab7)"><path fill="#ffffff" d="M 597.800781 48.597656 L 687.539062 48.597656 L 687.539062 176.542969 L 597.800781 176.542969 Z M 597.800781 48.597656 " fill-opacity="1" fill-rule="nonzero"/></g></g></svg>