<svg xmlns="http://www.w3.org/2000/svg" xmlns:xlink="http://www.w3.org/1999/xlink" width="700" zoomAndPan="magnify" viewBox="0 0 525 374.999991" height="500" preserveAspectRatio="xMidYMid meet" version="1.0"><defs><clipPath id="c45d940d86"><path d="M 58.683594 82.03125 L 525 82.03125 L 525 375 L 58.683594 375 Z M 58.683594 82.03125 " clip-rule="nonzero"/></clipPath><clipPath id="1a8636ff33"><path d="M 75.933594 82.03125 L 561.117188 82.03125 C 565.691406 82.03125 570.082031 83.851562 573.316406 87.085938 C 576.550781 90.320312 578.367188 94.707031 578.367188 99.28125 L 578.367188 419.820312 C 578.367188 424.394531 576.550781 428.78125 573.316406 432.015625 C 570.082031 435.253906 565.691406 437.070312 561.117188 437.070312 L 75.933594 437.070312 C 71.355469 437.070312 66.96875 435.253906 63.734375 432.015625 C 60.5 428.78125 58.683594 424.394531 58.683594 419.820312 L 58.683594 99.28125 C 58.683594 94.707031 60.5 90.320312 63.734375 87.085938 C 66.96875 83.851562 71.355469 82.03125 75.933594 82.03125 Z M 75.933594 82.03125 " clip-rule="nonzero"/></clipPath><clipPath id="d2ec12d290"><path d="M 84.953125 109.921875 L 231.523438 109.921875 L 231.523438 375 L 84.953125 375 Z M 84.953125 109.921875 " clip-rule="nonzero"/></clipPath><clipPath id="10bc9eb82e"><path d="M 100.046875 109.921875 L 216.429688 109.921875 C 220.429688 109.921875 224.269531 111.511719 227.101562 114.34375 C 229.929688 117.171875 231.523438 121.011719 231.523438 125.015625 L 231.523438 377.925781 C 231.523438 381.925781 229.929688 385.765625 227.101562 388.597656 C 224.269531 391.429688 220.429688 393.019531 216.429688 393.019531 L 100.046875 393.019531 C 96.042969 393.019531 92.203125 391.429688 89.375 388.597656 C 86.542969 385.765625 84.953125 381.925781 84.953125 377.925781 L 84.953125 125.015625 C 84.953125 121.011719 86.542969 117.171875 89.375 114.34375 C 92.203125 111.511719 96.042969 109.921875 100.046875 109.921875 Z M 100.046875 109.921875 " clip-rule="nonzero"/></clipPath><clipPath id="d9b1fd775f"><path d="M 252.726562 109.921875 L 399.296875 109.921875 L 399.296875 375 L 252.726562 375 Z M 252.726562 109.921875 " clip-rule="nonzero"/></clipPath><clipPath id="85cf3da1c7"><path d="M 267.820312 109.921875 L 384.203125 109.921875 C 388.203125 109.921875 392.042969 111.511719 394.875 114.34375 C 397.703125 117.171875 399.296875 121.011719 399.296875 125.015625 L 399.296875 377.925781 C 399.296875 381.925781 397.703125 385.765625 394.875 388.597656 C 392.042969 391.429688 388.203125 393.019531 384.203125 393.019531 L 267.820312 393.019531 C 263.816406 393.019531 259.976562 391.429688 257.148438 388.597656 C 254.316406 385.765625 252.726562 381.925781 252.726562 377.925781 L 252.726562 125.015625 C 252.726562 121.011719 254.316406 117.171875 257.148438 114.34375 C 259.976562 111.511719 263.816406 109.921875 267.820312 109.921875 Z M 267.820312 109.921875 " clip-rule="nonzero"/></clipPath><clipPath id="82617d9b02"><path d="M 420.5 109.921875 L 525 109.921875 L 525 375 L 420.5 375 Z M 420.5 109.921875 " clip-rule="nonzero"/></clipPath><clipPath id="4e1337f0ef"><path d="M 435.59375 109.921875 L 551.976562 109.921875 C 555.976562 109.921875 559.816406 111.511719 562.648438 114.34375 C 565.476562 117.171875 567.070312 121.011719 567.070312 125.015625 L 567.070312 377.925781 C 567.070312 381.925781 565.476562 385.765625 562.648438 388.597656 C 559.816406 391.429688 555.976562 393.019531 551.976562 393.019531 L 435.59375 393.019531 C 431.589844 393.019531 427.75 391.429688 424.921875 388.597656 C 422.089844 385.765625 420.5 381.925781 420.5 377.925781 L 420.5 125.015625 C 420.5 121.011719 422.089844 117.171875 424.921875 114.34375 C 427.75 111.511719 431.589844 109.921875 435.59375 109.921875 Z M 435.59375 109.921875 " clip-rule="nonzero"/></clipPath></defs><rect x="-52.5" width="630" fill="#ffffff" y="-37.499999" height="449.999989" fill-opacity="1"/><rect x="-52.5" width="630" fill="#292929" y="-37.499999" height="449.999989" fill-opacity="1"/><g clip-path="url(#c45d940d86)"><g clip-path="url(#1a8636ff33)"><path fill="#000000" d="M 58.683594 82.03125 L 578.753906 82.03125 L 578.753906 437.070312 L 58.683594 437.070312 Z M 58.683594 82.03125 " fill-opacity="1" fill-rule="nonzero"/></g></g><g clip-path="url(#d2ec12d290)"><g clip-path="url(#10bc9eb82e)"><path fill="#292929" d="M 84.953125 109.921875 L 231.523438 109.921875 L 231.523438 392.753906 L 84.953125 392.753906 Z M 84.953125 109.921875 " fill-opacity="1" fill-rule="nonzero"/></g></g><g clip-path="url(#d9b1fd775f)"><g clip-path="url(#85cf3da1c7)"><path fill="#292929" d="M 252.726562 109.921875 L 399.296875 109.921875 L 399.296875 392.753906 L 252.726562 392.753906 Z M 252.726562 109.921875 " fill-opacity="1" fill-rule="nonzero"/></g></g><g clip-path="url(#82617d9b02)"><g clip-path="url(#4e1337f0ef)"><path fill="#292929" d="M 420.5 109.921875 L 567.070312 109.921875 L 567.070312 392.753906 L 420.5 392.753906 Z M 420.5 109.921875 " fill-opacity="1" fill-rule="nonzero"/></g></g></svg>