<svg xmlns="http://www.w3.org/2000/svg" xmlns:xlink="http://www.w3.org/1999/xlink" width="500" zoomAndPan="magnify" viewBox="0 0 375 374.999991" height="500" preserveAspectRatio="xMidYMid meet" version="1.0"><defs><g/></defs><path fill="#3067c0" d="M 3.617188 55.820312 L 371.378906 55.820312 C 383.613281 55.820312 393.53125 65.738281 393.53125 77.972656 L 393.53125 122.273438 C 393.53125 134.507812 383.613281 144.425781 371.378906 144.425781 L 3.617188 144.425781 C -8.617188 144.425781 -18.535156 134.507812 -18.535156 122.273438 L -18.535156 77.972656 C -18.535156 65.738281 -8.617188 55.820312 3.617188 55.820312 Z M 3.617188 55.820312 " fill-opacity="1" fill-rule="nonzero"/><g fill="#ffffff" fill-opacity="1"><g transform="translate(5.876354, 118.963354)"><g><path d="M 33.359375 -20.03125 C 35.546875 -19.257812 37.257812 -18.054688 38.5 -16.421875 C 39.75 -14.796875 40.375 -12.832031 40.375 -10.53125 C 40.375 -7.164062 39.019531 -4.566406 36.3125 -2.734375 C 33.601562 -0.910156 29.691406 0 24.578125 0 L 3.84375 0 L 3.84375 -38.40625 L 23.484375 -38.40625 C 28.378906 -38.40625 32.109375 -37.5 34.671875 -35.6875 C 37.234375 -33.875 38.515625 -31.429688 38.515625 -28.359375 C 38.515625 -26.535156 38.066406 -24.898438 37.171875 -23.453125 C 36.273438 -22.003906 35.003906 -20.863281 33.359375 -20.03125 Z M 14.59375 -30.5625 L 14.59375 -23.15625 L 22.046875 -23.15625 C 25.710938 -23.15625 27.546875 -24.394531 27.546875 -26.875 C 27.546875 -29.332031 25.710938 -30.5625 22.046875 -30.5625 Z M 23.703125 -7.84375 C 27.503906 -7.84375 29.40625 -9.140625 29.40625 -11.734375 C 29.40625 -14.335938 27.503906 -15.640625 23.703125 -15.640625 L 14.59375 -15.640625 L 14.59375 -7.84375 Z M 23.703125 -7.84375 "/></g></g></g><g fill="#ffffff" fill-opacity="1"><g transform="translate(52.988079, 118.963354)"><g><path d="M 29.5625 -7.453125 L 13.328125 -7.453125 L 10.3125 0 L -0.765625 0 L 16.1875 -38.40625 L 26.875 -38.40625 L 43.890625 0 L 32.59375 0 Z M 26.390625 -15.46875 L 21.453125 -27.765625 L 16.515625 -15.46875 Z M 26.390625 -15.46875 "/></g></g></g><g fill="#ffffff" fill-opacity="1"><g transform="translate(101.032158, 118.963354)"><g><path d="M 3.84375 -38.40625 L 14.703125 -38.40625 L 14.703125 -8.609375 L 33.03125 -8.609375 L 33.03125 0 L 3.84375 0 Z M 3.84375 -38.40625 "/></g></g></g><g fill="#ffffff" fill-opacity="1"><g transform="translate(139.423727, 118.963354)"><g><path d="M 29.5625 -7.453125 L 13.328125 -7.453125 L 10.3125 0 L -0.765625 0 L 16.1875 -38.40625 L 26.875 -38.40625 L 43.890625 0 L 32.59375 0 Z M 26.390625 -15.46875 L 21.453125 -27.765625 L 16.515625 -15.46875 Z M 26.390625 -15.46875 "/></g></g></g><g fill="#ffffff" fill-opacity="1"><g transform="translate(187.467805, 118.963354)"><g><path d="M 40.375 -38.40625 L 40.375 0 L 31.4375 0 L 14.484375 -20.46875 L 14.484375 0 L 3.84375 0 L 3.84375 -38.40625 L 12.78125 -38.40625 L 29.734375 -17.9375 L 29.734375 -38.40625 Z M 40.375 -38.40625 "/></g></g></g><g fill="#ffffff" fill-opacity="1"><g transform="translate(236.608749, 118.963354)"><g><path d="M 22.984375 0.765625 C 18.960938 0.765625 15.347656 -0.0820312 12.140625 -1.78125 C 8.941406 -3.476562 6.425781 -5.84375 4.59375 -8.875 C 2.769531 -11.914062 1.859375 -15.359375 1.859375 -19.203125 C 1.859375 -23.046875 2.769531 -26.484375 4.59375 -29.515625 C 6.425781 -32.546875 8.941406 -34.910156 12.140625 -36.609375 C 15.347656 -38.316406 18.960938 -39.171875 22.984375 -39.171875 C 26.492188 -39.171875 29.65625 -38.546875 32.46875 -37.296875 C 35.289062 -36.054688 37.632812 -34.265625 39.5 -31.921875 L 32.59375 -25.671875 C 30.101562 -28.671875 27.082031 -30.171875 23.53125 -30.171875 C 21.445312 -30.171875 19.59375 -29.710938 17.96875 -28.796875 C 16.34375 -27.890625 15.082031 -26.601562 14.1875 -24.9375 C 13.289062 -23.269531 12.84375 -21.359375 12.84375 -19.203125 C 12.84375 -17.046875 13.289062 -15.132812 14.1875 -13.46875 C 15.082031 -11.800781 16.34375 -10.507812 17.96875 -9.59375 C 19.59375 -8.6875 21.445312 -8.234375 23.53125 -8.234375 C 27.082031 -8.234375 30.101562 -9.734375 32.59375 -12.734375 L 39.5 -6.46875 C 37.632812 -4.132812 35.289062 -2.34375 32.46875 -1.09375 C 29.65625 0.144531 26.492188 0.765625 22.984375 0.765625 Z M 22.984375 0.765625 "/></g></g></g><g fill="#ffffff" fill-opacity="1"><g transform="translate(282.020313, 118.963354)"><g><path d="M 34.671875 -8.390625 L 34.671875 0 L 3.84375 0 L 3.84375 -38.40625 L 33.953125 -38.40625 L 33.953125 -30.015625 L 14.59375 -30.015625 L 14.59375 -23.53125 L 31.65625 -23.53125 L 31.65625 -15.421875 L 14.59375 -15.421875 L 14.59375 -8.390625 Z M 34.671875 -8.390625 "/></g></g></g><g fill="#ffffff" fill-opacity="1"><g transform="translate(323.812193, 118.963354)"><g><path d="M 3.84375 -38.40625 L 22 -38.40625 C 26.207031 -38.40625 29.9375 -37.617188 33.1875 -36.046875 C 36.445312 -34.472656 38.972656 -32.238281 40.765625 -29.34375 C 42.554688 -26.457031 43.453125 -23.078125 43.453125 -19.203125 C 43.453125 -15.328125 42.554688 -11.941406 40.765625 -9.046875 C 38.972656 -6.160156 36.445312 -3.929688 33.1875 -2.359375 C 29.9375 -0.785156 26.207031 0 22 0 L 3.84375 0 Z M 21.5625 -8.671875 C 24.851562 -8.671875 27.492188 -9.601562 29.484375 -11.46875 C 31.484375 -13.332031 32.484375 -15.910156 32.484375 -19.203125 C 32.484375 -22.492188 31.484375 -25.070312 29.484375 -26.9375 C 27.492188 -28.800781 24.851562 -29.734375 21.5625 -29.734375 L 14.703125 -29.734375 L 14.703125 -8.671875 Z M 21.5625 -8.671875 "/></g></g></g><path fill="#e35959" d="M -12.027344 156.660156 L 387.023438 156.660156 L 387.023438 295.5625 L -12.027344 295.5625 L -12.027344 156.660156 " fill-opacity="1" fill-rule="nonzero"/><g fill="#000000" fill-opacity="1"><g transform="translate(13.374298, 259.874289)"><g><path d="M 71.625 -68.125 L 71.625 0 L 55.765625 0 L 25.6875 -36.296875 L 25.6875 0 L 6.8125 0 L 6.8125 -68.125 L 22.671875 -68.125 L 52.75 -31.828125 L 52.75 -68.125 Z M 71.625 -68.125 "/></g></g></g><g fill="#000000" fill-opacity="1"><g transform="translate(100.555716, 259.874289)"><g><path d="M 61.5 -14.890625 L 61.5 0 L 6.8125 0 L 6.8125 -68.125 L 60.234375 -68.125 L 60.234375 -53.234375 L 25.890625 -53.234375 L 25.890625 -41.75 L 56.15625 -41.75 L 56.15625 -27.34375 L 25.890625 -27.34375 L 25.890625 -14.890625 Z M 61.5 -14.890625 "/></g></g></g><g fill="#000000" fill-opacity="1"><g transform="translate(174.699138, 259.874289)"><g><path d="M 113.65625 -68.125 L 91.578125 0 L 70.9375 0 L 57.90625 -41.453125 L 44.28125 0 L 23.640625 0 L 1.5625 -68.125 L 21.40625 -68.125 L 35.125 -24.625 L 49.53125 -68.125 L 67.25 -68.125 L 80.96875 -24.234375 L 95.265625 -68.125 Z M 113.65625 -68.125 "/></g></g></g><g fill="#000000" fill-opacity="1"><g transform="translate(298.659419, 259.874289)"><g><path d="M 30.75 1.359375 C 25.238281 1.359375 19.882812 0.679688 14.6875 -0.671875 C 9.5 -2.035156 5.285156 -3.851562 2.046875 -6.125 L 8.375 -20.34375 C 11.414062 -18.332031 14.945312 -16.707031 18.96875 -15.46875 C 23 -14.238281 26.957031 -13.625 30.84375 -13.625 C 38.238281 -13.625 41.9375 -15.472656 41.9375 -19.171875 C 41.9375 -21.117188 40.878906 -22.5625 38.765625 -23.5 C 36.660156 -24.4375 33.273438 -25.425781 28.609375 -26.46875 C 23.484375 -27.570312 19.203125 -28.753906 15.765625 -30.015625 C 12.328125 -31.285156 9.375 -33.3125 6.90625 -36.09375 C 4.445312 -38.882812 3.21875 -42.648438 3.21875 -47.390625 C 3.21875 -51.546875 4.347656 -55.289062 6.609375 -58.625 C 8.878906 -61.96875 12.269531 -64.613281 16.78125 -66.5625 C 21.289062 -68.507812 26.820312 -69.484375 33.375 -69.484375 C 37.851562 -69.484375 42.265625 -68.976562 46.609375 -67.96875 C 50.953125 -66.96875 54.78125 -65.492188 58.09375 -63.546875 L 52.15625 -49.234375 C 45.664062 -52.742188 39.375 -54.5 33.28125 -54.5 C 29.457031 -54.5 26.664062 -53.929688 24.90625 -52.796875 C 23.15625 -51.660156 22.28125 -50.179688 22.28125 -48.359375 C 22.28125 -46.546875 23.316406 -45.1875 25.390625 -44.28125 C 27.472656 -43.375 30.816406 -42.429688 35.421875 -41.453125 C 40.609375 -40.347656 44.90625 -39.160156 48.3125 -37.890625 C 51.71875 -36.628906 54.671875 -34.617188 57.171875 -31.859375 C 59.671875 -29.109375 60.921875 -25.363281 60.921875 -20.625 C 60.921875 -16.539062 59.785156 -12.84375 57.515625 -9.53125 C 55.242188 -6.226562 51.835938 -3.585938 47.296875 -1.609375 C 42.753906 0.367188 37.238281 1.359375 30.75 1.359375 Z M 30.75 1.359375 "/></g></g></g></svg>