<svg xmlns="http://www.w3.org/2000/svg" xmlns:xlink="http://www.w3.org/1999/xlink" width="800" zoomAndPan="magnify" viewBox="0 0 600 374.999991" height="500" preserveAspectRatio="xMidYMid meet" version="1.0"><defs><g/></defs><path fill="#2868c9" d="M 4.808594 -5.429688 L 594.195312 -5.429688 C 613.804688 -5.429688 629.695312 10.464844 629.695312 30.070312 L 629.695312 101.074219 C 629.695312 120.679688 613.804688 136.574219 594.195312 136.574219 L 4.808594 136.574219 C -14.796875 136.574219 -30.691406 120.679688 -30.691406 101.074219 L -30.691406 30.070312 C -30.691406 10.464844 -14.796875 -5.429688 4.808594 -5.429688 Z M 4.808594 -5.429688 " fill-opacity="1" fill-rule="nonzero"/><g fill="#ffffff" fill-opacity="1"><g transform="translate(8.430113, 95.765895)"><g><path d="M 53.453125 -32.078125 C 56.960938 -30.847656 59.710938 -28.929688 61.703125 -26.328125 C 63.703125 -23.722656 64.703125 -20.570312 64.703125 -16.875 C 64.703125 -11.488281 62.53125 -7.328125 58.1875 -4.390625 C 53.851562 -1.460938 47.582031 0 39.375 0 L 6.15625 0 L 6.15625 -61.53125 L 37.625 -61.53125 C 45.476562 -61.53125 51.453125 -60.078125 55.546875 -57.171875 C 59.648438 -54.273438 61.703125 -50.367188 61.703125 -45.453125 C 61.703125 -42.515625 60.984375 -39.890625 59.546875 -37.578125 C 58.117188 -35.265625 56.085938 -33.429688 53.453125 -32.078125 Z M 23.390625 -48.96875 L 23.390625 -37.09375 L 35.34375 -37.09375 C 41.195312 -37.09375 44.125 -39.085938 44.125 -43.078125 C 44.125 -47.003906 41.195312 -48.96875 35.34375 -48.96875 Z M 37.96875 -12.578125 C 44.070312 -12.578125 47.125 -14.65625 47.125 -18.8125 C 47.125 -22.96875 44.070312 -25.046875 37.96875 -25.046875 L 23.390625 -25.046875 L 23.390625 -12.578125 Z M 37.96875 -12.578125 "/></g></g></g><g fill="#ffffff" fill-opacity="1"><g transform="translate(83.932942, 95.765895)"><g><path d="M 47.375 -11.953125 L 21.359375 -11.953125 L 16.53125 0 L -1.234375 0 L 25.9375 -61.53125 L 43.078125 -61.53125 L 70.328125 0 L 52.21875 0 Z M 42.28125 -24.796875 L 34.375 -44.484375 L 26.453125 -24.796875 Z M 42.28125 -24.796875 "/></g></g></g><g fill="#ffffff" fill-opacity="1"><g transform="translate(160.929991, 95.765895)"><g><path d="M 6.15625 -61.53125 L 23.5625 -61.53125 L 23.5625 -13.796875 L 52.921875 -13.796875 L 52.921875 0 L 6.15625 0 Z M 6.15625 -61.53125 "/></g></g></g><g fill="#ffffff" fill-opacity="1"><g transform="translate(222.457605, 95.765895)"><g><path d="M 47.375 -11.953125 L 21.359375 -11.953125 L 16.53125 0 L -1.234375 0 L 25.9375 -61.53125 L 43.078125 -61.53125 L 70.328125 0 L 52.21875 0 Z M 42.28125 -24.796875 L 34.375 -44.484375 L 26.453125 -24.796875 Z M 42.28125 -24.796875 "/></g></g></g><g fill="#ffffff" fill-opacity="1"><g transform="translate(299.454653, 95.765895)"><g><path d="M 64.703125 -61.53125 L 64.703125 0 L 50.375 0 L 23.203125 -32.796875 L 23.203125 0 L 6.15625 0 L 6.15625 -61.53125 L 20.484375 -61.53125 L 47.640625 -28.75 L 47.640625 -61.53125 Z M 64.703125 -61.53125 "/></g></g></g><g fill="#ffffff" fill-opacity="1"><g transform="translate(378.209575, 95.765895)"><g><path d="M 36.828125 1.234375 C 30.378906 1.234375 24.59375 -0.125 19.46875 -2.84375 C 14.34375 -5.570312 10.3125 -9.367188 7.375 -14.234375 C 4.445312 -19.097656 2.984375 -24.609375 2.984375 -30.765625 C 2.984375 -36.921875 4.445312 -42.429688 7.375 -47.296875 C 10.3125 -52.160156 14.34375 -55.953125 19.46875 -58.671875 C 24.59375 -61.398438 30.378906 -62.765625 36.828125 -62.765625 C 42.453125 -62.765625 47.519531 -61.765625 52.03125 -59.765625 C 56.550781 -57.773438 60.304688 -54.90625 63.296875 -51.15625 L 52.21875 -41.140625 C 48.226562 -45.941406 43.394531 -48.34375 37.71875 -48.34375 C 34.375 -48.34375 31.394531 -47.609375 28.78125 -46.140625 C 26.175781 -44.679688 24.15625 -42.617188 22.71875 -39.953125 C 21.28125 -37.285156 20.5625 -34.222656 20.5625 -30.765625 C 20.5625 -27.304688 21.28125 -24.242188 22.71875 -21.578125 C 24.15625 -18.910156 26.175781 -16.84375 28.78125 -15.375 C 31.394531 -13.914062 34.375 -13.1875 37.71875 -13.1875 C 43.394531 -13.1875 48.226562 -15.585938 52.21875 -20.390625 L 63.296875 -10.375 C 60.304688 -6.625 56.550781 -3.75 52.03125 -1.75 C 47.519531 0.238281 42.453125 1.234375 36.828125 1.234375 Z M 36.828125 1.234375 "/></g></g></g><g fill="#ffffff" fill-opacity="1"><g transform="translate(450.987669, 95.765895)"><g><path d="M 55.5625 -13.453125 L 55.5625 0 L 6.15625 0 L 6.15625 -61.53125 L 54.40625 -61.53125 L 54.40625 -48.078125 L 23.390625 -48.078125 L 23.390625 -37.71875 L 50.71875 -37.71875 L 50.71875 -24.703125 L 23.390625 -24.703125 L 23.390625 -13.453125 Z M 55.5625 -13.453125 "/></g></g></g><g fill="#ffffff" fill-opacity="1"><g transform="translate(517.964734, 95.765895)"><g><path d="M 6.15625 -61.53125 L 35.25 -61.53125 C 41.988281 -61.53125 47.960938 -60.269531 53.171875 -57.75 C 58.390625 -55.226562 62.4375 -51.648438 65.3125 -47.015625 C 68.1875 -42.390625 69.625 -36.972656 69.625 -30.765625 C 69.625 -24.554688 68.1875 -19.132812 65.3125 -14.5 C 62.4375 -9.875 58.390625 -6.300781 53.171875 -3.78125 C 47.960938 -1.257812 41.988281 0 35.25 0 L 6.15625 0 Z M 34.546875 -13.890625 C 39.816406 -13.890625 44.050781 -15.382812 47.25 -18.375 C 50.445312 -21.363281 52.046875 -25.492188 52.046875 -30.765625 C 52.046875 -36.035156 50.445312 -40.164062 47.25 -43.15625 C 44.050781 -46.144531 39.816406 -47.640625 34.546875 -47.640625 L 23.5625 -47.640625 L 23.5625 -13.890625 Z M 34.546875 -13.890625 "/></g></g></g><path fill="#fa5050" d="M -20.261719 156.179688 L 619.265625 156.179688 L 619.265625 378.792969 L -20.261719 378.792969 L -20.261719 156.179688 " fill-opacity="1" fill-rule="nonzero"/><g fill="#000000" fill-opacity="1"><g transform="translate(20.446568, 321.594504)"><g><path d="M 114.78125 -109.171875 L 114.78125 0 L 89.359375 0 L 41.171875 -58.171875 L 41.171875 0 L 10.921875 0 L 10.921875 -109.171875 L 36.34375 -109.171875 L 84.53125 -51 L 84.53125 -109.171875 Z M 114.78125 -109.171875 "/></g></g></g><g fill="#000000" fill-opacity="1"><g transform="translate(160.166415, 321.594504)"><g><path d="M 98.5625 -23.859375 L 98.5625 0 L 10.921875 0 L 10.921875 -109.171875 L 96.53125 -109.171875 L 96.53125 -85.3125 L 41.484375 -85.3125 L 41.484375 -66.90625 L 89.984375 -66.90625 L 89.984375 -43.828125 L 41.484375 -43.828125 L 41.484375 -23.859375 Z M 98.5625 -23.859375 "/></g></g></g><g fill="#000000" fill-opacity="1"><g transform="translate(278.991135, 321.594504)"><g><path d="M 182.15625 -109.171875 L 146.75 0 L 113.6875 0 L 92.796875 -66.4375 L 70.953125 0 L 37.890625 0 L 2.5 -109.171875 L 34.3125 -109.171875 L 56.296875 -39.453125 L 79.375 -109.171875 L 107.765625 -109.171875 L 129.75 -38.828125 L 152.671875 -109.171875 Z M 182.15625 -109.171875 "/></g></g></g><g fill="#000000" fill-opacity="1"><g transform="translate(477.654014, 321.594504)"><g><path d="M 49.28125 2.1875 C 40.445312 2.1875 31.867188 1.097656 23.546875 -1.078125 C 15.234375 -3.265625 8.476562 -6.179688 3.28125 -9.828125 L 13.40625 -32.59375 C 18.289062 -29.375 23.957031 -26.773438 30.40625 -24.796875 C 36.851562 -22.816406 43.195312 -21.828125 49.4375 -21.828125 C 61.289062 -21.828125 67.21875 -24.789062 67.21875 -30.71875 C 67.21875 -33.84375 65.523438 -36.15625 62.140625 -37.65625 C 58.765625 -39.164062 53.332031 -40.753906 45.84375 -42.421875 C 37.632812 -44.191406 30.773438 -46.085938 25.265625 -48.109375 C 19.753906 -50.140625 15.019531 -53.390625 11.0625 -57.859375 C 7.113281 -62.328125 5.140625 -68.359375 5.140625 -75.953125 C 5.140625 -82.609375 6.957031 -88.613281 10.59375 -93.96875 C 14.238281 -99.320312 19.671875 -103.554688 26.890625 -106.671875 C 34.117188 -109.785156 42.984375 -111.34375 53.484375 -111.34375 C 60.660156 -111.34375 67.734375 -110.535156 74.703125 -108.921875 C 81.671875 -107.316406 87.804688 -104.957031 93.109375 -101.84375 L 83.59375 -78.90625 C 73.195312 -84.519531 63.113281 -87.328125 53.34375 -87.328125 C 47.207031 -87.328125 42.734375 -86.414062 39.921875 -84.59375 C 37.117188 -82.78125 35.71875 -80.421875 35.71875 -77.515625 C 35.71875 -74.597656 37.378906 -72.410156 40.703125 -70.953125 C 44.023438 -69.503906 49.378906 -68 56.765625 -66.4375 C 65.085938 -64.664062 71.976562 -62.765625 77.4375 -60.734375 C 82.894531 -58.710938 87.625 -55.492188 91.625 -51.078125 C 95.625 -46.660156 97.625 -40.65625 97.625 -33.0625 C 97.625 -26.507812 95.800781 -20.582031 92.15625 -15.28125 C 88.519531 -9.976562 83.0625 -5.738281 75.78125 -2.5625 C 68.507812 0.601562 59.675781 2.1875 49.28125 2.1875 Z M 49.28125 2.1875 "/></g></g></g></svg>