<svg xmlns="http://www.w3.org/2000/svg" xmlns:xlink="http://www.w3.org/1999/xlink" width="700" zoomAndPan="magnify" viewBox="0 0 525 374.999991" height="500" preserveAspectRatio="xMidYMid meet" version="1.0"><defs><clipPath id="b42bc29542"><path d="M 58.683594 82.03125 L 525 82.03125 L 525 375 L 58.683594 375 Z M 58.683594 82.03125 " clip-rule="nonzero"/></clipPath><clipPath id="9f6faa26c5"><path d="M 75.933594 82.03125 L 561.117188 82.03125 C 565.691406 82.03125 570.082031 83.851562 573.316406 87.085938 C 576.550781 90.320312 578.367188 94.707031 578.367188 99.28125 L 578.367188 419.820312 C 578.367188 424.394531 576.550781 428.78125 573.316406 432.015625 C 570.082031 435.253906 565.691406 437.070312 561.117188 437.070312 L 75.933594 437.070312 C 71.355469 437.070312 66.96875 435.253906 63.734375 432.015625 C 60.5 428.78125 58.683594 424.394531 58.683594 419.820312 L 58.683594 99.28125 C 58.683594 94.707031 60.5 90.320312 63.734375 87.085938 C 66.96875 83.851562 71.355469 82.03125 75.933594 82.03125 Z M 75.933594 82.03125 " clip-rule="nonzero"/></clipPath><clipPath id="f5f42734ea"><path d="M 260.804688 0 L 525 0 L 525 375 L 260.804688 375 Z M 260.804688 0 " clip-rule="nonzero"/></clipPath><clipPath id="5f277e4f44"><path d="M 84.953125 109.921875 L 231.523438 109.921875 L 231.523438 375 L 84.953125 375 Z M 84.953125 109.921875 " clip-rule="nonzero"/></clipPath><clipPath id="5bbb83fa26"><path d="M 100.046875 109.921875 L 216.429688 109.921875 C 220.429688 109.921875 224.269531 111.511719 227.101562 114.34375 C 229.929688 117.171875 231.523438 121.011719 231.523438 125.015625 L 231.523438 377.925781 C 231.523438 381.925781 229.929688 385.765625 227.101562 388.597656 C 224.269531 391.429688 220.429688 393.019531 216.429688 393.019531 L 100.046875 393.019531 C 96.042969 393.019531 92.203125 391.429688 89.375 388.597656 C 86.542969 385.765625 84.953125 381.925781 84.953125 377.925781 L 84.953125 125.015625 C 84.953125 121.011719 86.542969 117.171875 89.375 114.34375 C 92.203125 111.511719 96.042969 109.921875 100.046875 109.921875 Z M 100.046875 109.921875 " clip-rule="nonzero"/></clipPath><clipPath id="a25c099d52"><path d="M 318.523438 82.03125 L 525 82.03125 L 525 375 L 318.523438 375 Z M 318.523438 82.03125 " clip-rule="nonzero"/></clipPath><clipPath id="57065bea28"><path d="M 335.773438 82.03125 L 820.960938 82.03125 C 825.535156 82.03125 829.921875 83.851562 833.15625 87.085938 C 836.394531 90.320312 838.210938 94.707031 838.210938 99.28125 L 838.210938 419.820312 C 838.210938 424.394531 836.394531 428.78125 833.15625 432.015625 C 829.921875 435.253906 825.535156 437.070312 820.960938 437.070312 L 335.773438 437.070312 C 331.199219 437.070312 326.8125 435.253906 323.578125 432.015625 C 320.34375 428.78125 318.523438 424.394531 318.523438 419.820312 L 318.523438 99.28125 C 318.523438 94.707031 320.34375 90.320312 323.578125 87.085938 C 326.8125 83.851562 331.199219 82.03125 335.773438 82.03125 Z M 335.773438 82.03125 " clip-rule="nonzero"/></clipPath><clipPath id="c018d5fdee"><path d="M 348.335938 109.921875 L 494.90625 109.921875 L 494.90625 375 L 348.335938 375 Z M 348.335938 109.921875 " clip-rule="nonzero"/></clipPath><clipPath id="a14f8f9cf0"><path d="M 363.429688 109.921875 L 479.8125 109.921875 C 483.8125 109.921875 487.652344 111.511719 490.484375 114.34375 C 493.316406 117.171875 494.90625 121.011719 494.90625 125.015625 L 494.90625 377.925781 C 494.90625 381.925781 493.316406 385.765625 490.484375 388.597656 C 487.652344 391.429688 483.8125 393.019531 479.8125 393.019531 L 363.429688 393.019531 C 359.425781 393.019531 355.585938 391.429688 352.757812 388.597656 C 349.925781 385.765625 348.335938 381.925781 348.335938 377.925781 L 348.335938 125.015625 C 348.335938 121.011719 349.925781 117.171875 352.757812 114.34375 C 355.585938 111.511719 359.425781 109.921875 363.429688 109.921875 Z M 363.429688 109.921875 " clip-rule="nonzero"/></clipPath></defs><rect x="-52.5" width="630" fill="#ffffff" y="-37.499999" height="449.999989" fill-opacity="1"/><rect x="-52.5" width="630" fill="#faf5f4" y="-37.499999" height="449.999989" fill-opacity="1"/><g clip-path="url(#b42bc29542)"><g clip-path="url(#9f6faa26c5)"><path fill="#e6e6e6" d="M 58.683594 82.03125 L 578.753906 82.03125 L 578.753906 437.070312 L 58.683594 437.070312 Z M 58.683594 82.03125 " fill-opacity="1" fill-rule="nonzero"/></g></g><g clip-path="url(#f5f42734ea)"><path fill="#292929" d="M 260.804688 0 L 525 0 L 525 374.621094 L 260.804688 374.621094 Z M 260.804688 0 " fill-opacity="1" fill-rule="nonzero"/></g><g clip-path="url(#5f277e4f44)"><g clip-path="url(#5bbb83fa26)"><path fill="#faf5f4" d="M 84.953125 109.921875 L 231.523438 109.921875 L 231.523438 392.753906 L 84.953125 392.753906 Z M 84.953125 109.921875 " fill-opacity="1" fill-rule="nonzero"/></g></g><g clip-path="url(#a25c099d52)"><g clip-path="url(#57065bea28)"><path fill="#000000" d="M 318.523438 82.03125 L 838.597656 82.03125 L 838.597656 437.070312 L 318.523438 437.070312 Z M 318.523438 82.03125 " fill-opacity="1" fill-rule="nonzero"/></g></g><g clip-path="url(#c018d5fdee)"><g clip-path="url(#a14f8f9cf0)"><path fill="#292929" d="M 348.335938 109.921875 L 494.90625 109.921875 L 494.90625 392.753906 L 348.335938 392.753906 Z M 348.335938 109.921875 " fill-opacity="1" fill-rule="nonzero"/></g></g></svg>